<svg xmlns="http://www.w3.org/2000/svg" width="520" height="420" viewBox="0 0 520 420" role="img"><title>18-disk configuration illustration</title><desc>Gray circles show the source configuration; the black circle marks the unit disk. Coordinates are rounded for illustration.</desc><rect width="520" height="420" fill="white" /><g id="covering-circles" fill="none" stroke="#666" stroke-width="1.5"><circle id="cover-0" cx="376.2" cy="237.9" r="42.9" /><circle id="cover-1" cx="383.1" cy="174.0" r="42.9" /><circle id="cover-2" cx="343.6" cy="123.3" r="42.9" /><circle id="cover-3" cx="291.9" cy="78.7" r="42.9" /><circle id="cover-4" cx="225.2" cy="94.2" r="42.9" /><circle id="cover-5" cx="160.7" cy="118.1" r="42.9" /><circle id="cover-6" cx="128.2" cy="187.3" r="42.9" /><circle id="cover-7" cx="154.6" cy="239.0" r="42.9" /><circle id="cover-8" cx="159.3" cy="296.8" r="42.9" /><circle id="cover-9" cx="223.4" cy="338.6" r="42.9" /><circle id="cover-10" cx="290.8" cy="324.9" r="42.9" /><circle id="cover-11" cx="355.7" cy="303.1" r="42.9" /><circle id="cover-12" cx="231.2" cy="217.2" r="42.9" /><circle id="cover-13" cx="231.2" cy="269.9" r="42.9" /><circle id="cover-14" cx="298.9" cy="254.8" r="42.9" /><circle id="cover-15" cx="309.1" cy="195.0" r="42.9" /><circle id="cover-16" cx="269.0" cy="149.6" r="42.9" /><circle id="cover-17" cx="203.5" cy="172.4" r="42.9" /></g><circle id="unit-disk" cx="260" cy="209" r="148" fill="none" stroke="#111" stroke-width="2.3" /></svg>
