<svg xmlns="http://www.w3.org/2000/svg" width="640" height="600" viewBox="0 0 640 600" role="img"><title>n=24: non-optimal covering illustration, display only</title><desc>Non-optimal covering configuration, for display only. This illustration is not a reference answer.</desc><rect width="640" height="600" fill="white" /><g id="covering-circles" fill="none" stroke="#666" stroke-width="1.5"><circle id="cover-0" cx="468.3334658" cy="245.0537460" r="44.4554172" /><circle id="cover-1" cx="474.1389176" cy="312.6045366" r="44.4554172" /><circle id="cover-2" cx="433.2010316" cy="358.6433994" r="44.4554172" /><circle id="cover-3" cx="397.8613958" cy="405.6342660" r="44.4554172" /><circle id="cover-4" cx="334.8611240" cy="419.2946388" r="44.4554172" /><circle id="cover-5" cx="271.7030084" cy="416.4282072" r="44.4554172" /><circle id="cover-6" cx="207.2209136" cy="385.4491776" r="44.4554172" /><circle id="cover-7" cx="179.7744920" cy="322.8484104" r="44.4554172" /><circle id="cover-8" cx="159.3347432" cy="257.8104270" r="44.4554172" /><circle id="cover-9" cx="190.6348802" cy="205.0142274" r="44.4554172" /><circle id="cover-10" cx="214.9183274" cy="143.9714646" r="44.4554172" /><circle id="cover-11" cx="279.8144762" cy="129.5024544" r="44.4554172" /><circle id="cover-12" cx="339.9128060" cy="112.0377510" r="44.4554172" /><circle id="cover-13" cx="398.4000818" cy="143.1447732" r="44.4554172" /><circle id="cover-14" cx="449.9377430" cy="182.0260962" r="44.4554172" /><circle id="cover-15" cx="316.4753228" cy="271.4848002" r="44.4554172" /><circle id="cover-16" cx="386.0424428" cy="225.3894606" r="44.4554172" /><circle id="cover-17" cx="398.1865658" cy="283.5125802" r="44.4554172" /><circle id="cover-18" cx="357.8688590" cy="338.1364962" r="44.4554172" /><circle id="cover-19" cx="320.2836656" cy="351.8410320" r="44.4554172" /><circle id="cover-20" cx="260.3765444" cy="333.7155936" r="44.4554172" /><circle id="cover-21" cx="239.4769622" cy="269.4117240" r="44.4554172" /><circle id="cover-22" cx="268.9089872" cy="204.8644080" r="44.4554172" /><circle id="cover-23" cx="333.5156672" cy="192.5554536" r="44.4554172" /></g><circle id="unit-disk" cx="320" cy="270" r="180" fill="none" stroke="#111" stroke-width="2.3" /></svg>
