<svg xmlns="http://www.w3.org/2000/svg" width="520" height="420" viewBox="0 0 520 420" role="img"><title>27-disk covering: Illustration of the optimal configuration</title><desc>Gray circles show the source configuration; the black circle marks the unit disk. Coordinates are rounded for illustration.</desc><rect width="520" height="420" fill="white" /><g id="covering-circles" fill="none" stroke="#666" stroke-width="1.5"><circle id="cover-0" cx="385.6" cy="234.8" r="34.2" /><circle id="cover-1" cx="395.4" cy="177.2" r="34.2" /><circle id="cover-2" cx="360.2" cy="132.4" r="34.2" /><circle id="cover-3" cx="324.2" cy="100.5" r="34.2" /><circle id="cover-4" cx="275.5" cy="70.8" r="34.2" /><circle id="cover-5" cx="219.5" cy="87.3" r="34.2" /><circle id="cover-6" cx="164.8" cy="107.6" r="34.2" /><circle id="cover-7" cx="143.6" cy="160.5" r="34.2" /><circle id="cover-8" cx="133.9" cy="207.7" r="34.2" /><circle id="cover-9" cx="132.5" cy="264.7" r="34.2" /><circle id="cover-10" cx="174.9" cy="304.9" r="34.2" /><circle id="cover-11" cx="219.8" cy="342.2" r="34.2" /><circle id="cover-12" cx="276.2" cy="334.0" r="34.2" /><circle id="cover-13" cx="321.9" cy="318.8" r="34.2" /><circle id="cover-14" cx="371.9" cy="291.6" r="34.2" /><circle id="cover-15" cx="289.8" cy="215.1" r="34.2" /><circle id="cover-16" cx="250.4" cy="180.2" r="34.2" /><circle id="cover-17" cx="239.8" cy="231.7" r="34.2" /><circle id="cover-18" cx="343.9" cy="194.8" r="34.2" /><circle id="cover-19" cx="307.2" cy="155.8" r="34.2" /><circle id="cover-20" cx="264.2" cy="124.0" r="34.2" /><circle id="cover-21" cx="205.7" cy="143.5" r="34.2" /><circle id="cover-22" cx="190.3" cy="194.7" r="34.2" /><circle id="cover-23" cx="184.3" cy="247.8" r="34.2" /><circle id="cover-24" cx="230.4" cy="288.8" r="34.2" /><circle id="cover-25" cx="282.4" cy="276.5" r="34.2" /><circle id="cover-26" cx="331.5" cy="255.1" r="34.2" /></g><circle id="unit-disk" cx="260" cy="209" r="148" fill="none" stroke="#111" stroke-width="2.3" /></svg>
